<svg xmlns="http://www.w3.org/2000/svg" width="1380" height="1220" viewBox="0 0 1380 1220"><rect width="1380" height="1220" fill="#f6f8f6"/><text x="60" y="65" font-family="Microsoft YaHei" font-size="30" font-weight="500" fill="#25372f" letter-spacing="0">智面幻境 · 字标搭配与组合标志</text><text x="60" y="102" font-family="Microsoft YaHei" font-size="16" font-weight="400" fill="#25372f" letter-spacing="0">第五阶段｜01A 基线主体固定｜本轮比较文字气质、字距与图文比例</text><rect x="60" y="140" width="1260" height="240" rx="12" fill="#fff"/><text x="84" y="175" font-family="Microsoft YaHei" font-size="20" font-weight="600" fill="#25372f" letter-spacing="0">A · 温和清晰</text><text x="84" y="204" font-family="Microsoft YaHei" font-size="15" font-weight="400" fill="#25372f" letter-spacing="0">紧凑黑体与柔和无衬线，优先适配产品导航。</text><g transform="translate(88 236) scale(0.11217948717948718)"><path fill="#000" d="M 0 183 C 0 146 13 125 44 105 L 93 76 C 135 51 160 64 203 86 C 245 108 281 126 319 104 C 343 90 358 62 381 30 C 412 -12 446 -6 479 16 L 573 83 C 606 106 622 134 622 167 L 622 565 C 622 599 598 623 569 624 C 556 624 550 619 550 609 L 550 202 C 550 164 521 133 485 144 C 422 164 363 184 297 184 C 237 184 190 169 134 151 C 103 141 72 165 72 202 L 72 607 C 72 619 66 624 55 624 C 23 624 0 600 0 566 Z"/><path fill="#000" d="M 97 207 Q 97 190 110 199 L 205 276 Q 215 284 215 300 L 215 512 Q 215 527 204 534 L 110 601 Q 97 610 97 595 Z"/><path fill="#000" d="M 525 207 Q 525 190 512 199 L 417 276 Q 407 284 407 300 L 407 512 Q 407 527 418 534 L 512 601 Q 525 610 525 595 Z"/></g><text x="181" y="285" font-family="Microsoft YaHei" font-size="40" font-weight="600" fill="#000" letter-spacing="1">智面幻境</text><g transform="translate(550 236) scale(0.11217948717948718)"><path fill="#000" d="M 0 183 C 0 146 13 125 44 105 L 93 76 C 135 51 160 64 203 86 C 245 108 281 126 319 104 C 343 90 358 62 381 30 C 412 -12 446 -6 479 16 L 573 83 C 606 106 622 134 622 167 L 622 565 C 622 599 598 623 569 624 C 556 624 550 619 550 609 L 550 202 C 550 164 521 133 485 144 C 422 164 363 184 297 184 C 237 184 190 169 134 151 C 103 141 72 165 72 202 L 72 607 C 72 619 66 624 55 624 C 23 624 0 600 0 566 Z"/><path fill="#000" d="M 97 207 Q 97 190 110 199 L 205 276 Q 215 284 215 300 L 215 512 Q 215 527 204 534 L 110 601 Q 97 610 97 595 Z"/><path fill="#000" d="M 525 207 Q 525 190 512 199 L 417 276 Q 407 284 407 300 L 407 512 Q 407 527 418 534 L 512 601 Q 525 610 525 595 Z"/></g><text x="646" y="283" font-family="Segoe UI" font-size="43" font-weight="600" fill="#000" letter-spacing="0">OfferPilot</text><g transform="translate(1000 235) scale(0.10737179487179487)"><path fill="#000" d="M 0 183 C 0 146 13 125 44 105 L 93 76 C 135 51 160 64 203 86 C 245 108 281 126 319 104 C 343 90 358 62 381 30 C 412 -12 446 -6 479 16 L 573 83 C 606 106 622 134 622 167 L 622 565 C 622 599 598 623 569 624 C 556 624 550 619 550 609 L 550 202 C 550 164 521 133 485 144 C 422 164 363 184 297 184 C 237 184 190 169 134 151 C 103 141 72 165 72 202 L 72 607 C 72 619 66 624 55 624 C 23 624 0 600 0 566 Z"/><path fill="#000" d="M 97 207 Q 97 190 110 199 L 205 276 Q 215 284 215 300 L 215 512 Q 215 527 204 534 L 110 601 Q 97 610 97 595 Z"/><path fill="#000" d="M 525 207 Q 525 190 512 199 L 417 276 Q 407 284 407 300 L 407 512 Q 407 527 418 534 L 512 601 Q 525 610 525 595 Z"/></g><text x="1086" y="261" font-family="Microsoft YaHei" font-size="28" font-weight="600" fill="#000" letter-spacing="0.5">智面幻境</text><text x="1086" y="295" font-family="Segoe UI" font-size="20" font-weight="400" fill="#48564f" letter-spacing="0">OfferPilot</text><text x="88" y="356" font-family="Microsoft YaHei" font-size="13" font-weight="400" fill="#25372f" letter-spacing="0">中文：Microsoft YaHei / 英文：Segoe UI · 字体搭配草案，未定制字形</text><rect x="60" y="405" width="1260" height="240" rx="12" fill="#fff"/><text x="84" y="440" font-family="Microsoft YaHei" font-size="20" font-weight="600" fill="#25372f" letter-spacing="0">B · 轻盈秩序</text><text x="84" y="469" font-family="Microsoft YaHei" font-size="15" font-weight="400" fill="#25372f" letter-spacing="0">更疏朗的中文和窄一些的英文，整体更轻。</text><g transform="translate(88 501) scale(0.11217948717948718)"><path fill="#000" d="M 0 183 C 0 146 13 125 44 105 L 93 76 C 135 51 160 64 203 86 C 245 108 281 126 319 104 C 343 90 358 62 381 30 C 412 -12 446 -6 479 16 L 573 83 C 606 106 622 134 622 167 L 622 565 C 622 599 598 623 569 624 C 556 624 550 619 550 609 L 550 202 C 550 164 521 133 485 144 C 422 164 363 184 297 184 C 237 184 190 169 134 151 C 103 141 72 165 72 202 L 72 607 C 72 619 66 624 55 624 C 23 624 0 600 0 566 Z"/><path fill="#000" d="M 97 207 Q 97 190 110 199 L 205 276 Q 215 284 215 300 L 215 512 Q 215 527 204 534 L 110 601 Q 97 610 97 595 Z"/><path fill="#000" d="M 525 207 Q 525 190 512 199 L 417 276 Q 407 284 407 300 L 407 512 Q 407 527 418 534 L 512 601 Q 525 610 525 595 Z"/></g><text x="181" y="550" font-family="DengXian" font-size="40" font-weight="400" fill="#000" letter-spacing="3">智面幻境</text><g transform="translate(550 501) scale(0.11217948717948718)"><path fill="#000" d="M 0 183 C 0 146 13 125 44 105 L 93 76 C 135 51 160 64 203 86 C 245 108 281 126 319 104 C 343 90 358 62 381 30 C 412 -12 446 -6 479 16 L 573 83 C 606 106 622 134 622 167 L 622 565 C 622 599 598 623 569 624 C 556 624 550 619 550 609 L 550 202 C 550 164 521 133 485 144 C 422 164 363 184 297 184 C 237 184 190 169 134 151 C 103 141 72 165 72 202 L 72 607 C 72 619 66 624 55 624 C 23 624 0 600 0 566 Z"/><path fill="#000" d="M 97 207 Q 97 190 110 199 L 205 276 Q 215 284 215 300 L 215 512 Q 215 527 204 534 L 110 601 Q 97 610 97 595 Z"/><path fill="#000" d="M 525 207 Q 525 190 512 199 L 417 276 Q 407 284 407 300 L 407 512 Q 407 527 418 534 L 512 601 Q 525 610 525 595 Z"/></g><text x="646" y="548" font-family="Bahnschrift" font-size="43" font-weight="400" fill="#000" letter-spacing="0.6">OfferPilot</text><g transform="translate(1000 500) scale(0.10737179487179487)"><path fill="#000" d="M 0 183 C 0 146 13 125 44 105 L 93 76 C 135 51 160 64 203 86 C 245 108 281 126 319 104 C 343 90 358 62 381 30 C 412 -12 446 -6 479 16 L 573 83 C 606 106 622 134 622 167 L 622 565 C 622 599 598 623 569 624 C 556 624 550 619 550 609 L 550 202 C 550 164 521 133 485 144 C 422 164 363 184 297 184 C 237 184 190 169 134 151 C 103 141 72 165 72 202 L 72 607 C 72 619 66 624 55 624 C 23 624 0 600 0 566 Z"/><path fill="#000" d="M 97 207 Q 97 190 110 199 L 205 276 Q 215 284 215 300 L 215 512 Q 215 527 204 534 L 110 601 Q 97 610 97 595 Z"/><path fill="#000" d="M 525 207 Q 525 190 512 199 L 417 276 Q 407 284 407 300 L 407 512 Q 407 527 418 534 L 512 601 Q 525 610 525 595 Z"/></g><text x="1086" y="526" font-family="DengXian" font-size="28" font-weight="400" fill="#000" letter-spacing="1.5">智面幻境</text><text x="1086" y="560" font-family="Bahnschrift" font-size="20" font-weight="400" fill="#48564f" letter-spacing="0">OfferPilot</text><text x="88" y="621" font-family="Microsoft YaHei" font-size="13" font-weight="400" fill="#25372f" letter-spacing="0">中文：DengXian / 英文：Bahnschrift · 字体搭配草案，未定制字形</text><rect x="60" y="670" width="1260" height="240" rx="12" fill="#fff"/><text x="84" y="705" font-family="Microsoft YaHei" font-size="20" font-weight="600" fill="#25372f" letter-spacing="0">C · 稳健直接</text><text x="84" y="734" font-family="Microsoft YaHei" font-size="15" font-weight="400" fill="#25372f" letter-spacing="0">更扎实的文字重量，与厚实舱体呼应。</text><g transform="translate(88 766) scale(0.11217948717948718)"><path fill="#000" d="M 0 183 C 0 146 13 125 44 105 L 93 76 C 135 51 160 64 203 86 C 245 108 281 126 319 104 C 343 90 358 62 381 30 C 412 -12 446 -6 479 16 L 573 83 C 606 106 622 134 622 167 L 622 565 C 622 599 598 623 569 624 C 556 624 550 619 550 609 L 550 202 C 550 164 521 133 485 144 C 422 164 363 184 297 184 C 237 184 190 169 134 151 C 103 141 72 165 72 202 L 72 607 C 72 619 66 624 55 624 C 23 624 0 600 0 566 Z"/><path fill="#000" d="M 97 207 Q 97 190 110 199 L 205 276 Q 215 284 215 300 L 215 512 Q 215 527 204 534 L 110 601 Q 97 610 97 595 Z"/><path fill="#000" d="M 525 207 Q 525 190 512 199 L 417 276 Q 407 284 407 300 L 407 512 Q 407 527 418 534 L 512 601 Q 525 610 525 595 Z"/></g><text x="181" y="815" font-family="SimHei" font-size="40" font-weight="700" fill="#000" letter-spacing="0">智面幻境</text><g transform="translate(550 766) scale(0.11217948717948718)"><path fill="#000" d="M 0 183 C 0 146 13 125 44 105 L 93 76 C 135 51 160 64 203 86 C 245 108 281 126 319 104 C 343 90 358 62 381 30 C 412 -12 446 -6 479 16 L 573 83 C 606 106 622 134 622 167 L 622 565 C 622 599 598 623 569 624 C 556 624 550 619 550 609 L 550 202 C 550 164 521 133 485 144 C 422 164 363 184 297 184 C 237 184 190 169 134 151 C 103 141 72 165 72 202 L 72 607 C 72 619 66 624 55 624 C 23 624 0 600 0 566 Z"/><path fill="#000" d="M 97 207 Q 97 190 110 199 L 205 276 Q 215 284 215 300 L 215 512 Q 215 527 204 534 L 110 601 Q 97 610 97 595 Z"/><path fill="#000" d="M 525 207 Q 525 190 512 199 L 417 276 Q 407 284 407 300 L 407 512 Q 407 527 418 534 L 512 601 Q 525 610 525 595 Z"/></g><text x="646" y="813" font-family="Arial" font-size="43" font-weight="700" fill="#000" letter-spacing="0">OfferPilot</text><g transform="translate(1000 765) scale(0.10737179487179487)"><path fill="#000" d="M 0 183 C 0 146 13 125 44 105 L 93 76 C 135 51 160 64 203 86 C 245 108 281 126 319 104 C 343 90 358 62 381 30 C 412 -12 446 -6 479 16 L 573 83 C 606 106 622 134 622 167 L 622 565 C 622 599 598 623 569 624 C 556 624 550 619 550 609 L 550 202 C 550 164 521 133 485 144 C 422 164 363 184 297 184 C 237 184 190 169 134 151 C 103 141 72 165 72 202 L 72 607 C 72 619 66 624 55 624 C 23 624 0 600 0 566 Z"/><path fill="#000" d="M 97 207 Q 97 190 110 199 L 205 276 Q 215 284 215 300 L 215 512 Q 215 527 204 534 L 110 601 Q 97 610 97 595 Z"/><path fill="#000" d="M 525 207 Q 525 190 512 199 L 417 276 Q 407 284 407 300 L 407 512 Q 407 527 418 534 L 512 601 Q 525 610 525 595 Z"/></g><text x="1086" y="791" font-family="SimHei" font-size="28" font-weight="700" fill="#000" letter-spacing="0">智面幻境</text><text x="1086" y="825" font-family="Arial" font-size="20" font-weight="400" fill="#48564f" letter-spacing="0">OfferPilot</text><text x="88" y="886" font-family="Microsoft YaHei" font-size="13" font-weight="400" fill="#25372f" letter-spacing="0">中文：SimHei / 英文：Arial · 字体搭配草案，未定制字形</text><text x="60" y="985" font-family="Microsoft YaHei" font-size="20" font-weight="500" fill="#25372f" letter-spacing="0">推荐 A：中文主标用于产品；英文独立用于英文场景；双语组合用于介绍材料。</text><rect x="60" y="1012" width="620" height="105" rx="12" fill="#fff"/><g transform="translate(88 1045) scale(0.057692307692307696)"><path fill="#10b981" d="M 0 183 C 0 146 13 125 44 105 L 93 76 C 135 51 160 64 203 86 C 245 108 281 126 319 104 C 343 90 358 62 381 30 C 412 -12 446 -6 479 16 L 573 83 C 606 106 622 134 622 167 L 622 565 C 622 599 598 623 569 624 C 556 624 550 619 550 609 L 550 202 C 550 164 521 133 485 144 C 422 164 363 184 297 184 C 237 184 190 169 134 151 C 103 141 72 165 72 202 L 72 607 C 72 619 66 624 55 624 C 23 624 0 600 0 566 Z"/><path fill="#10b981" d="M 97 207 Q 97 190 110 199 L 205 276 Q 215 284 215 300 L 215 512 Q 215 527 204 534 L 110 601 Q 97 610 97 595 Z"/><path fill="#10b981" d="M 525 207 Q 525 190 512 199 L 417 276 Q 407 284 407 300 L 407 512 Q 407 527 418 534 L 512 601 Q 525 610 525 595 Z"/></g><text x="139" y="1072" font-family="Microsoft YaHei" font-size="25" font-weight="600" fill="#25372f" letter-spacing="0">智面幻境</text><text x="402" y="1070" font-family="Microsoft YaHei" font-size="15" font-weight="400" fill="#596960" letter-spacing="0">开始模拟面试</text><rect x="700" y="1012" width="620" height="105" rx="12" fill="#10251d"/><g transform="translate(728 1045) scale(0.057692307692307696)"><path fill="#fff" d="M 0 183 C 0 146 13 125 44 105 L 93 76 C 135 51 160 64 203 86 C 245 108 281 126 319 104 C 343 90 358 62 381 30 C 412 -12 446 -6 479 16 L 573 83 C 606 106 622 134 622 167 L 622 565 C 622 599 598 623 569 624 C 556 624 550 619 550 609 L 550 202 C 550 164 521 133 485 144 C 422 164 363 184 297 184 C 237 184 190 169 134 151 C 103 141 72 165 72 202 L 72 607 C 72 619 66 624 55 624 C 23 624 0 600 0 566 Z"/><path fill="#fff" d="M 97 207 Q 97 190 110 199 L 205 276 Q 215 284 215 300 L 215 512 Q 215 527 204 534 L 110 601 Q 97 610 97 595 Z"/><path fill="#fff" d="M 525 207 Q 525 190 512 199 L 417 276 Q 407 284 407 300 L 407 512 Q 407 527 418 534 L 512 601 Q 525 610 525 595 Z"/></g><text x="779" y="1072" font-family="Microsoft YaHei" font-size="25" font-weight="600" fill="#fff" letter-spacing="0">智面幻境</text><text x="1046" y="1070" font-family="Microsoft YaHei" font-size="15" font-weight="400" fill="#afc8bb" letter-spacing="0">深色界面示意</text><text x="60" y="1160" font-family="Microsoft YaHei" font-size="15" font-weight="400" fill="#25372f" letter-spacing="0">组合规则草案：图文间距约为符号高度的 0.33 倍；中文主标优先单行；小尺寸不附双语副标。</text><text x="60" y="1190" font-family="Microsoft YaHei" font-size="14" font-weight="400" fill="#25372f" letter-spacing="0">字体使用本机系统字体，仅供评审；没有分发字体文件，尚未完成字体授权确认与最终字标轮廓化。</text></svg>