<svg xmlns="http://www.w3.org/2000/svg" viewBox="0 0 160 125"><defs><linearGradient id="paper" x2=".3" y2="1"><stop stop-color="#fffef9"/><stop offset="1" stop-color="#e8e8de"/></linearGradient><linearGradient id="spine" x2="1" y2="1"><stop stop-color="#789d84"/><stop offset="1" stop-color="#365a43"/></linearGradient><filter id="shadow" x="-40%" y="-40%" width="180%" height="180%"><feDropShadow dx="0" dy="5" stdDeviation="4" flood-color="#304a37" flood-opacity=".12"/></filter></defs><g transform="translate(24 14) rotate(-12 55 45)" filter="url(#shadow)"><path d="M4 17 99 11 111 78 16 85Z" fill="#d0d5c8"/><path d="m6 13 95-5 13 67-96 7Z" fill="#f4f3e9" stroke="#d8ddcf"/><path d="m8 9 93-5 13 67-96 7Z" fill="url(#paper)" stroke="#e3e5da"/><path d="m8 9 11-1 12 68-13 2Z" fill="url(#spine)"/><path d="m78 5 11-.5 5 27-6-3-5 5Z" fill="#48795a"/><path d="m40 31 39-2m-37 10 43-3m-42 11 31-2" stroke="#bec8b9" stroke-width="1.4" stroke-linecap="round"/></g></svg>